<svg width="4069" height="2000" viewBox="0 0 4069 2000" fill="none" xmlns="http://www.w3.org/2000/svg">
<rect width="4069" height="2000" fill="#282828"/>
<circle cx="2759" cy="1759" r="50" fill="#8A00F6"/>
<circle cx="2759" cy="1524" r="50" fill="#00DD3E"/>
<rect width="992" height="100" rx="50" transform="matrix(1 0 0 -1 185 368)" fill="#3C3C3C"/>
<rect width="1518" height="528" rx="100" transform="matrix(1 0 0 -1 2406 1336)" fill="#3C3C3C"/>
<rect width="173" height="100" rx="50" transform="matrix(1 0 0 -1 3751 318)" fill="#3C3C3C"/>
<rect width="414" height="100" rx="50" transform="matrix(1 0 0 -1 3212 609)" fill="#3C3C3C"/>
<rect width="754" height="92" rx="46" transform="matrix(1 0 0 -1 2932 1805)" fill="#3C3C3C"/>
<rect width="992" height="92" rx="46" transform="matrix(1 0 0 -1 2932 1570)" fill="#3C3C3C"/>
<rect width="1825" height="88" rx="44" transform="matrix(1 0 0 -1 185 896)" fill="#3C3C3C"/>
<rect width="307" height="100" rx="50" transform="matrix(1 0 0 -1 359 1837)" fill="#3C3C3C"/>
<rect width="307" height="100" rx="50" transform="matrix(1 0 0 -1 1272 1837)" fill="#3C3C3C"/>
<rect width="295" height="140" rx="70" transform="matrix(1 0 0 -1 185 658)" fill="#FF3D00"/>
<circle cx="3809" cy="559" r="115" fill="#3C3C3C"/>
<rect width="618" height="57" rx="28.5" transform="matrix(1 0 0 -1 559 616)" fill="#3C3C3C"/>
<path d="M630.664 1605.24C636.213 1618.29 651.343 1624.45 663.911 1617.9C713.488 1592.05 755.758 1553.86 786.531 1506.84C822.001 1452.64 840.603 1389.14 839.985 1324.37C839.367 1259.6 819.556 1196.47 783.057 1142.96C746.558 1089.45 695.012 1047.96 634.935 1023.75C574.858 999.532 508.95 993.675 445.545 1006.92C382.14 1020.16 324.085 1051.91 278.723 1098.14C233.36 1144.38 202.727 1203.03 190.698 1266.68C180.261 1321.89 184.233 1378.72 202.027 1431.72C206.538 1445.16 221.713 1451.21 234.757 1445.66V1445.66C247.8 1440.11 253.751 1425.07 249.437 1411.57C235.504 1367.97 232.585 1321.45 241.135 1276.21C251.28 1222.54 277.111 1173.08 315.364 1134.09C353.616 1095.1 402.572 1068.33 456.039 1057.16C509.506 1046 565.085 1050.94 615.745 1071.36C666.406 1091.78 709.873 1126.76 740.651 1171.88C771.429 1217.01 788.135 1270.25 788.656 1324.86C789.178 1379.48 773.491 1433.03 743.58 1478.73C718.369 1517.25 684.006 1548.75 643.733 1570.5C631.261 1577.23 625.114 1592.2 630.664 1605.24V1605.24Z" fill="#3C3C3C"/>
<path d="M1425.5 1000C1606.37 1000 1753 1146.63 1753 1327.5C1753 1508.37 1606.37 1655 1425.5 1655C1244.63 1655 1098 1508.37 1098 1327.5C1098 1146.63 1244.63 1000 1425.5 1000ZM1425.5 1603.67C1578.02 1603.67 1701.67 1480.02 1701.67 1327.5C1701.67 1174.98 1578.02 1051.33 1425.5 1051.33C1272.98 1051.33 1149.33 1174.98 1149.33 1327.5C1149.33 1480.02 1272.98 1603.67 1425.5 1603.67Z" fill="#3C3C3C"/>
<path d="M512.5 1025.67C512.5 1011.49 500.991 999.895 486.86 1001.01C431.121 1005.38 377.275 1023.97 330.551 1055.19C276.694 1091.18 234.717 1142.33 209.929 1202.17C185.142 1262.01 178.656 1327.86 191.293 1391.39C203.929 1454.92 235.121 1513.28 280.923 1559.08C326.724 1604.88 385.079 1636.07 448.608 1648.71C512.137 1661.34 577.986 1654.86 637.829 1630.07C697.672 1605.28 748.82 1563.31 784.806 1509.45C816.027 1462.72 834.618 1408.88 838.995 1353.14C840.105 1339.01 828.509 1327.5 814.335 1327.5V1327.5C800.16 1327.5 788.793 1339.02 787.477 1353.13C783.23 1398.7 767.704 1442.65 742.126 1480.93C711.78 1526.35 668.649 1561.74 618.185 1582.65C567.722 1603.55 512.194 1609.02 458.622 1598.36C405.051 1587.71 355.842 1561.4 317.219 1522.78C278.596 1484.16 252.293 1434.95 241.637 1381.38C230.981 1327.81 236.45 1272.28 257.353 1221.81C278.256 1171.35 313.653 1128.22 359.069 1097.87C397.349 1072.3 441.297 1056.77 486.871 1052.52C500.985 1051.21 512.5 1039.84 512.5 1025.67V1025.67Z" fill="#008EF6"/>
<path d="M1727.33 1330.5C1741.51 1330.5 1753.1 1318.99 1751.99 1304.86C1748.51 1260.52 1736.03 1217.26 1715.2 1177.76C1690.37 1130.67 1654.44 1090.35 1610.52 1060.27C1566.6 1030.2 1516.01 1011.29 1463.14 1005.17C1418.78 1000.04 1373.93 1004.04 1331.33 1016.83C1317.75 1020.91 1311.22 1035.88 1316.34 1049.1V1049.1C1321.47 1062.31 1336.31 1068.74 1349.95 1064.87C1384.71 1054.98 1421.17 1051.99 1457.24 1056.16C1501.83 1061.32 1544.49 1077.27 1581.52 1102.63C1618.56 1127.99 1648.86 1161.99 1669.79 1201.7C1686.73 1233.82 1697.12 1268.88 1700.48 1304.87C1701.79 1318.98 1713.16 1330.5 1727.33 1330.5V1330.5Z" fill="#00DD3E"/>
</svg>
