<svg width="2800" height="2000" viewBox="0 0 2800 2000" fill="none" xmlns="http://www.w3.org/2000/svg">
<rect width="2800" height="2000" fill="#282828"/>
<rect width="1620" height="100" rx="50" transform="matrix(1 0 0 -1 127 368)" fill="#3C3C3C"/>
<circle cx="837.925" cy="650.075" r="62.075" fill="#008EF6"/>
<rect width="401.1" height="57.3" rx="28.65" transform="matrix(1 0 0 -1 775.85 947.08)" fill="#3C3C3C"/>
<rect width="244.48" height="57.3" rx="28.65" transform="matrix(1 0 0 -1 932.47 678.725)" fill="#3C3C3C"/>
<rect width="401.1" height="57.3" rx="28.65" transform="matrix(1 0 0 -1 775.85 833.435)" fill="#3C3C3C"/>
<rect width="401.1" height="57.3" rx="28.65" transform="matrix(1 0 0 -1 775.85 1060.73)" fill="#3C3C3C"/>
<rect x="210" y="588.295" width="490" height="490" rx="100" fill="#3C3C3C"/>
<circle cx="2218.92" cy="650.075" r="62.075" fill="#008EF6"/>
<rect width="401.1" height="57.3" rx="28.65" transform="matrix(1 0 0 -1 2156.85 947.08)" fill="#3C3C3C"/>
<rect width="244.48" height="57.3" rx="28.65" transform="matrix(1 0 0 -1 2313.47 678.725)" fill="#3C3C3C"/>
<rect width="401.1" height="57.3" rx="28.65" transform="matrix(1 0 0 -1 2156.85 833.435)" fill="#3C3C3C"/>
<rect width="401.1" height="57.3" rx="28.65" transform="matrix(1 0 0 -1 2156.85 1060.73)" fill="#3C3C3C"/>
<rect x="1591" y="588.295" width="490" height="490" rx="100" fill="#3C3C3C"/>
<circle cx="2218.92" cy="1302.07" r="62.075" fill="#008EF6"/>
<rect width="401.1" height="57.3" rx="28.65" transform="matrix(1 0 0 -1 2156.85 1599.08)" fill="#3C3C3C"/>
<rect width="244.48" height="57.3" rx="28.65" transform="matrix(1 0 0 -1 2313.47 1330.73)" fill="#3C3C3C"/>
<rect width="401.1" height="57.3" rx="28.65" transform="matrix(1 0 0 -1 2156.85 1485.44)" fill="#3C3C3C"/>
<rect width="401.1" height="57.3" rx="28.65" transform="matrix(1 0 0 -1 2156.85 1712.73)" fill="#3C3C3C"/>
<rect x="1591" y="1240.29" width="490" height="490" rx="100" fill="#3C3C3C"/>
<circle cx="837.925" cy="1302.07" r="62.075" fill="#008EF6"/>
<rect width="401.1" height="57.3" rx="28.65" transform="matrix(1 0 0 -1 775.85 1599.08)" fill="#3C3C3C"/>
<rect width="244.48" height="57.3" rx="28.65" transform="matrix(1 0 0 -1 932.47 1330.73)" fill="#3C3C3C"/>
<rect width="401.1" height="57.3" rx="28.65" transform="matrix(1 0 0 -1 775.85 1485.44)" fill="#3C3C3C"/>
<rect width="401.1" height="57.3" rx="28.65" transform="matrix(1 0 0 -1 775.85 1712.73)" fill="#3C3C3C"/>
<rect x="210" y="1240.29" width="490" height="490" rx="100" fill="#3C3C3C"/>
</svg>
