<svg width="4069" height="2372" viewBox="0 0 4069 2372" fill="none" xmlns="http://www.w3.org/2000/svg">
<rect width="4069" height="2372" fill="#282828"/>
<circle cx="1350" cy="1795" r="50" fill="#8A00F6"/>
<circle cx="1066" cy="1981" r="50" fill="#00DD3E"/>
<rect width="992" height="100" rx="50" transform="matrix(1 0 0 -1 185 268)" fill="#3C3C3C"/>
<rect width="1518" height="528" rx="100" transform="matrix(1 0 0 -1 185 1574)" fill="#3C3C3C"/>
<rect width="1491" height="140" rx="70" transform="matrix(1 0 0 -1 2416 1186)" fill="#3C3C3C"/>
<rect width="854" height="456" rx="100" transform="matrix(1 0 0 -1 2034 2201)" fill="#3C3C3C"/>
<rect width="275" height="100" rx="50" transform="matrix(1 0 0 -1 3526 908)" fill="#3C3C3C"/>
<rect width="275" height="100" rx="50" transform="matrix(1 0 0 -1 2843 908)" fill="#3C3C3C"/>
<rect width="754" height="92" rx="46" transform="matrix(1 0 0 -1 185 2023)" fill="#3C3C3C"/>
<rect width="992" height="92" rx="46" transform="matrix(1 0 0 -1 185 1837)" fill="#3C3C3C"/>
<rect width="1825" height="88" rx="44" transform="matrix(1 0 0 -1 185 896)" fill="#3C3C3C"/>
<rect width="611" height="100" rx="50" transform="matrix(1 0 0 -1 2990 2172)" fill="#3C3C3C"/>
<rect width="307" height="100" rx="50" transform="matrix(1 0 0 -1 185 2217)" fill="#3C3C3C"/>
<rect width="295" height="140" rx="70" transform="matrix(1 0 0 -1 185 658)" fill="#FF3D00"/>
<rect width="438" height="106" rx="53" transform="matrix(1 0 0 -1 3161 1478)" fill="#FF3D00"/>
<circle cx="3792" cy="2122" r="115" fill="#3C3C3C"/>
<circle cx="3792" cy="1425" r="115" fill="#3C3C3C"/>
<rect width="618" height="57" rx="28.5" transform="matrix(1 0 0 -1 559 616)" fill="#3C3C3C"/>
<path d="M3751.04 668.929C3755.17 678.647 3766.44 683.24 3775.81 678.358C3812.74 659.099 3844.24 630.648 3867.16 595.616C3893.59 555.237 3907.45 507.927 3906.99 459.671C3906.53 411.414 3891.77 364.378 3864.58 324.51C3837.38 284.643 3798.98 253.734 3754.22 235.692C3709.46 217.651 3660.36 213.288 3613.12 223.154C3565.88 233.02 3522.62 256.673 3488.83 291.121C3455.03 325.569 3432.21 369.265 3423.24 416.684C3415.47 457.823 3418.43 500.161 3431.69 539.651C3435.05 549.663 3446.35 554.171 3456.07 550.036V550.036C3465.79 545.902 3470.22 534.692 3467.01 524.632C3456.63 492.15 3454.45 457.491 3460.82 423.787C3468.38 383.8 3487.63 346.953 3516.13 317.904C3544.63 288.855 3581.1 268.909 3620.93 260.589C3660.77 252.27 3702.18 255.949 3739.92 271.163C3777.67 286.376 3810.05 312.441 3832.98 346.06C3855.91 379.679 3868.36 419.343 3868.75 460.036C3869.14 500.729 3857.45 540.623 3835.16 574.674C3816.38 603.375 3790.78 626.837 3760.77 643.042C3751.48 648.06 3746.9 659.212 3751.04 668.929V668.929Z" fill="#3C3C3C"/>
<path d="M2980 218C3114.76 218 3224 327.243 3224 462C3224 596.757 3114.76 706 2980 706C2845.24 706 2736 596.757 2736 462C2736 327.243 2845.24 218 2980 218ZM2980 667.757C3093.64 667.757 3185.76 575.636 3185.76 462C3185.76 348.364 3093.64 256.243 2980 256.243C2866.36 256.243 2774.24 348.364 2774.24 462C2774.24 575.636 2866.36 667.757 2980 667.757Z" fill="#3C3C3C"/>
<path d="M3438.12 462C3427.56 462 3418.92 470.575 3419.75 481.103C3423.01 522.63 3436.86 562.748 3460.12 597.559C3486.93 637.685 3525.04 668.959 3569.63 687.427C3614.21 705.894 3663.27 710.726 3710.6 701.312C3757.93 691.897 3801.41 668.658 3835.53 634.534C3869.66 600.41 3892.9 556.933 3902.31 509.602C3911.73 462.271 3906.89 413.21 3888.43 368.625C3869.96 324.04 3838.68 285.932 3798.56 259.121C3763.75 235.861 3723.63 222.01 3682.1 218.749C3671.57 217.922 3663 226.561 3663 237.122V237.122C3663 247.682 3671.58 256.151 3682.09 257.131C3716.05 260.296 3748.79 271.863 3777.31 290.92C3811.15 313.529 3837.52 345.663 3853.09 383.26C3868.67 420.857 3872.74 462.228 3864.8 502.141C3856.86 542.054 3837.27 578.716 3808.49 607.492C3779.72 636.267 3743.05 655.864 3703.14 663.803C3663.23 671.742 3621.86 667.667 3584.26 652.094C3546.66 636.521 3514.53 610.149 3491.92 576.312C3472.86 547.792 3461.3 515.049 3458.13 481.095C3457.15 470.579 3448.68 462 3438.12 462V462Z" fill="#008EF6"/>
<path d="M3204.88 462C3215.44 462 3224.08 453.426 3223.25 442.897C3220.66 409.862 3211.35 377.631 3195.84 348.2C3177.34 313.119 3150.57 283.076 3117.85 260.67C3085.13 238.265 3047.44 224.174 3008.04 219.616C2974.99 215.793 2941.58 218.776 2909.84 228.305C2899.72 231.342 2894.85 242.497 2898.67 252.343V252.343C2902.49 262.189 2913.55 266.982 2923.71 264.093C2949.61 256.726 2976.77 254.498 3003.65 257.607C3036.87 261.45 3068.65 273.333 3096.24 292.226C3123.84 311.12 3146.41 336.454 3162.01 366.037C3174.62 389.967 3182.37 416.093 3184.87 442.905C3185.85 453.421 3194.32 462 3204.88 462V462Z" fill="#00DD3E"/>
</svg>
