<svg width="1813" height="2929" viewBox="0 0 1813 2929" fill="none" xmlns="http://www.w3.org/2000/svg">
<rect width="1813" height="2929" fill="#282828"/>
<rect width="992" height="100" rx="50" transform="matrix(1 0 0 -1 208 273)" fill="#3C3C3C"/>
<rect width="759" height="100" rx="50" transform="matrix(1 0 0 -1 609 877)" fill="#3C3C3C"/>
<circle cx="372.5" cy="827.5" r="164.5" fill="#3C3C3C"/>
<path d="M1541 749C1497.94 749 1463 783.944 1463 827C1463 870.056 1497.94 905 1541 905C1584.06 905 1619 870.056 1619 827C1619 783.944 1584.06 749 1541 749Z" fill="#008EF6"/>
<path d="M1527.89 844.566C1526.87 845.587 1525.22 845.587 1524.2 844.566L1509.16 829.455C1507.28 827.574 1504.24 827.574 1502.37 829.455V829.455C1500.5 831.325 1500.5 834.347 1502.37 836.216L1521.5 855.439C1524.01 857.955 1528.08 857.955 1530.59 855.439L1580.63 805.172C1582.5 803.302 1582.5 800.28 1580.63 798.41V798.41C1578.76 796.529 1575.72 796.529 1573.84 798.41L1527.89 844.566Z" fill="#3C3C3C" stroke="#3C3C3C" stroke-width="5"/>
<rect width="759" height="100" rx="50" transform="matrix(1 0 0 -1 609 1735)" fill="#3C3C3C"/>
<circle cx="372.5" cy="1685.5" r="164.5" fill="#3C3C3C"/>
<path d="M1541 1607C1497.94 1607 1463 1641.94 1463 1685C1463 1728.06 1497.94 1763 1541 1763C1584.06 1763 1619 1728.06 1619 1685C1619 1641.94 1584.06 1607 1541 1607Z" fill="#008EF6"/>
<path d="M1527.89 1702.57C1526.87 1703.59 1525.22 1703.59 1524.2 1702.57L1509.16 1687.46C1507.28 1685.57 1504.24 1685.57 1502.37 1687.46V1687.46C1500.5 1689.32 1500.5 1692.35 1502.37 1694.22L1521.5 1713.44C1524.01 1715.95 1528.08 1715.95 1530.59 1713.44L1580.63 1663.17C1582.5 1661.3 1582.5 1658.28 1580.63 1656.41V1656.41C1578.76 1654.53 1575.72 1654.53 1573.84 1656.41L1527.89 1702.57Z" fill="#3C3C3C" stroke="#3C3C3C" stroke-width="5"/>
<rect width="759" height="100" rx="50" transform="matrix(1 0 0 -1 609 2593)" fill="#3C3C3C"/>
<circle cx="372.5" cy="2543.5" r="164.5" fill="#3C3C3C"/>
<path d="M1541 2465C1497.94 2465 1463 2499.94 1463 2543C1463 2586.06 1497.94 2621 1541 2621C1584.06 2621 1619 2586.06 1619 2543C1619 2499.94 1584.06 2465 1541 2465Z" fill="#008EF6"/>
<path d="M1527.89 2560.57C1526.87 2561.59 1525.22 2561.59 1524.2 2560.57L1509.16 2545.46C1507.28 2543.57 1504.24 2543.57 1502.37 2545.46V2545.46C1500.5 2547.32 1500.5 2550.35 1502.37 2552.22L1521.5 2571.44C1524.01 2573.95 1528.08 2573.95 1530.59 2571.44L1580.63 2521.17C1582.5 2519.3 1582.5 2516.28 1580.63 2514.41V2514.41C1578.76 2512.53 1575.72 2512.53 1573.84 2514.41L1527.89 2560.57Z" fill="#3C3C3C" stroke="#3C3C3C" stroke-width="5"/>
<rect width="759" height="100" rx="50" transform="matrix(1 0 0 -1 609 1306)" fill="#3C3C3C"/>
<circle cx="372.5" cy="1256.5" r="164.5" fill="#3C3C3C"/>
<path d="M1611 1256C1611 1261.52 1606.52 1266 1601 1266H1556C1553.24 1266 1551 1268.24 1551 1271V1316C1551 1321.52 1546.52 1326 1541 1326V1326C1535.48 1326 1531 1321.52 1531 1316V1271C1531 1268.24 1528.76 1266 1526 1266H1481C1475.48 1266 1471 1261.52 1471 1256V1256C1471 1250.48 1475.48 1246 1481 1246H1526C1528.76 1246 1531 1243.76 1531 1241V1196C1531 1190.48 1535.48 1186 1541 1186V1186C1546.52 1186 1551 1190.48 1551 1196V1241C1551 1243.76 1553.24 1246 1556 1246H1601C1606.52 1246 1611 1250.48 1611 1256V1256Z" fill="#3C3C3C"/>
<rect width="759" height="100" rx="50" transform="matrix(1 0 0 -1 609 2164)" fill="#3C3C3C"/>
<circle cx="372.5" cy="2114.5" r="164.5" fill="#3C3C3C"/>
<path d="M1611 2114C1611 2119.52 1606.52 2124 1601 2124H1556C1553.24 2124 1551 2126.24 1551 2129V2174C1551 2179.52 1546.52 2184 1541 2184V2184C1535.48 2184 1531 2179.52 1531 2174V2129C1531 2126.24 1528.76 2124 1526 2124H1481C1475.48 2124 1471 2119.52 1471 2114V2114C1471 2108.48 1475.48 2104 1481 2104H1526C1528.76 2104 1531 2101.76 1531 2099V2054C1531 2048.48 1535.48 2044 1541 2044V2044C1546.52 2044 1551 2048.48 1551 2054V2099C1551 2101.76 1553.24 2104 1556 2104H1601C1606.52 2104 1611 2108.48 1611 2114V2114Z" fill="#3C3C3C"/>
</svg>
