<svg width="6107" height="1330" viewBox="0 0 6107 1330" fill="none" xmlns="http://www.w3.org/2000/svg">
<rect width="6107" height="1330" fill="#282828"/>
<rect width="1620" height="100" rx="50" transform="matrix(1 0 0 -1 210 307)" fill="#3C3C3C"/>
<circle cx="837.925" cy="650.075" r="62.075" fill="#008EF6"/>
<rect width="401.1" height="57.3" rx="28.65" transform="matrix(1 0 0 -1 775.85 947.08)" fill="#3C3C3C"/>
<rect width="244.48" height="57.3" rx="28.65" transform="matrix(1 0 0 -1 932.47 678.725)" fill="#3C3C3C"/>
<rect width="401.1" height="57.3" rx="28.65" transform="matrix(1 0 0 -1 775.85 833.435)" fill="#3C3C3C"/>
<rect width="401.1" height="57.3" rx="28.65" transform="matrix(1 0 0 -1 775.85 1060.73)" fill="#3C3C3C"/>
<rect x="210" y="588.295" width="490" height="490" rx="100" fill="#3C3C3C"/>
<circle cx="2218.92" cy="650.075" r="62.075" fill="#00DD3E"/>
<rect width="401.1" height="57.3" rx="28.65" transform="matrix(1 0 0 -1 2156.85 947.08)" fill="#3C3C3C"/>
<rect width="244.48" height="57.3" rx="28.65" transform="matrix(1 0 0 -1 2313.47 678.725)" fill="#3C3C3C"/>
<rect width="401.1" height="57.3" rx="28.65" transform="matrix(1 0 0 -1 2156.85 833.435)" fill="#3C3C3C"/>
<rect width="401.1" height="57.3" rx="28.65" transform="matrix(1 0 0 -1 2156.85 1060.73)" fill="#3C3C3C"/>
<rect x="1591" y="588.295" width="490" height="490" rx="100" fill="#3C3C3C"/>
<circle cx="4980.93" cy="616.075" r="62.075" fill="#FF3D00"/>
<rect width="401.1" height="57.3" rx="28.65" transform="matrix(1 0 0 -1 4918.85 913.08)" fill="#3C3C3C"/>
<rect width="244.48" height="57.3" rx="28.65" transform="matrix(1 0 0 -1 5075.47 644.725)" fill="#3C3C3C"/>
<rect width="401.1" height="57.3" rx="28.65" transform="matrix(1 0 0 -1 4918.85 799.435)" fill="#3C3C3C"/>
<rect width="401.1" height="57.3" rx="28.65" transform="matrix(1 0 0 -1 4918.85 1026.73)" fill="#3C3C3C"/>
<rect x="4353" y="554.295" width="490" height="490" rx="100" fill="#3C3C3C"/>
<circle cx="3599.92" cy="633.075" r="62.075" fill="#8A00F6"/>
<rect width="401.1" height="57.3" rx="28.65" transform="matrix(1 0 0 -1 3537.85 930.08)" fill="#3C3C3C"/>
<rect width="244.48" height="57.3" rx="28.65" transform="matrix(1 0 0 -1 3694.47 661.725)" fill="#3C3C3C"/>
<rect width="401.1" height="57.3" rx="28.65" transform="matrix(1 0 0 -1 3537.85 816.435)" fill="#3C3C3C"/>
<rect width="401.1" height="57.3" rx="28.65" transform="matrix(1 0 0 -1 3537.85 1043.73)" fill="#3C3C3C"/>
<rect x="2972" y="571.295" width="490" height="490" rx="100" fill="#3C3C3C"/>
</svg>
